<svg xmlns="http://www.w3.org/2000/svg" xmlns:xlink="http://www.w3.org/1999/xlink" version="1.1" id="Layer_1" x="0px" y="0px" enable-background="new 0 0 192 176" xml:space="preserve" viewBox="1 5.8 192 170.22">
<path fill="#000000" opacity="1.000000" stroke="none" d=" M1.000000,55.000000   C1.000000,54.250000 1.000000,53.500000 1.273106,52.173828   C3.329611,49.504711 5.760540,48.408733 8.173451,47.278984   C36.485195,34.023067 64.814919,20.805223 93.086868,7.464946   C97.807770,5.237366 102.048477,5.238105 106.869637,7.477170   C135.518845,20.782572 164.277878,33.851574 193.000000,47.000000   C193.000000,50.362103 193.000000,53.724201 192.672089,57.426605   C183.358719,53.587273 183.352234,53.587273 183.351349,63.413235   C183.348206,97.894547 183.359268,132.375854 183.342606,166.857162   C183.338913,174.506531 181.870468,176.020584 174.393082,176.020752   C125.086655,176.021759 75.780212,176.011063 26.473803,175.969879   C17.809183,175.962646 16.693167,174.792892 16.705076,166.072922   C16.752396,131.425186 16.837164,96.777504 16.856207,62.129776   C16.857431,59.902874 17.535908,57.480625 15.860180,55.502827   C3.978885,57.869373 3.978885,57.869373 1.000000,55.000000  M41.201710,42.788910   C38.634491,43.981636 36.158707,45.467857 33.479900,46.302399   C28.758261,47.773365 27.120962,50.669418 27.203241,55.589527   C27.431608,69.245331 27.189453,82.908600 27.213758,96.568779   C27.216425,98.067497 26.580740,99.865097 28.765795,101.449425   C29.116739,100.868263 29.405800,100.249748 29.817543,99.728073   C41.975990,84.323364 57.191570,73.079285 75.608246,66.245911   C78.030891,65.347008 79.258766,63.788509 80.040298,61.342968   C82.006172,55.191368 85.287666,49.801720 90.610962,45.944794   C95.059509,42.721653 98.514702,44.253696 99.368706,49.693188   C99.570938,50.981213 99.458694,52.367188 100.827858,53.150753   C101.145241,53.003025 101.520096,52.943253 101.707863,52.723568   C103.806801,50.267853 105.475830,46.394695 109.570351,48.361378   C113.410439,50.205856 112.278328,54.054657 111.626228,57.273125   C110.780304,61.448254 111.645630,64.231651 116.113495,65.765419   C121.260643,67.532379 125.506119,70.728874 128.229752,75.659698   C129.850708,78.594284 132.015579,81.125816 134.345535,83.527946   C141.418549,90.820045 148.445709,98.156731 155.534790,105.433105   C160.082794,110.101273 163.227661,115.402359 163.866455,122.049423   C164.637817,130.075928 160.197052,138.054550 152.503067,142.141678   C145.749496,145.729263 141.208038,144.658966 133.506042,138.487000   C126.933861,133.220413 119.280151,130.701599 110.767311,131.167633   C107.275345,131.358795 103.785767,131.667953 100.342651,130.688843   C97.229324,129.803513 95.391434,131.042603 94.114433,133.998672   C90.514915,142.331024 88.456802,151.023926 87.352570,159.996201   C86.807640,164.423965 88.726357,165.870850 93.019333,165.850677   C117.840805,165.734055 142.663696,165.699219 167.484558,165.866470   C172.347916,165.899246 173.772247,164.131882 173.751022,159.395798   C173.594849,124.578979 173.594162,89.760811 173.755417,54.944042   C173.775482,50.614719 172.282730,48.358181 168.394043,46.619568   C147.110321,37.103725 125.895569,27.431200 104.740669,17.632128   C101.399696,16.084570 98.694008,16.079557 95.356941,17.657354   C77.594093,26.055792 59.720848,34.220734 41.201710,42.788910  M89.157494,63.163666   C88.644539,70.106598 84.398964,73.014816 78.116470,75.278259   C57.272556,82.787849 41.634190,96.821892 30.083834,115.610138   C28.183100,118.701942 27.179249,121.818092 27.210125,125.473160   C27.307230,136.968155 27.315340,148.466888 27.113720,159.959900   C27.038389,164.253952 28.615753,165.914352 32.949318,165.853775   C45.276104,165.681442 57.606857,165.807922 69.935974,165.781738   C77.457451,165.765762 77.778702,165.455597 78.534302,158.150665   C79.483528,148.973663 81.844971,140.156265 85.378754,131.653702   C88.307076,124.607948 87.810829,122.311600 81.646515,116.463028   C75.859634,124.828369 71.766975,133.793488 70.302132,143.878342   C70.016075,145.847702 70.036385,147.920227 68.886406,149.646286   C67.929718,151.082214 66.614609,152.226532 64.748062,151.912567   C62.763271,151.578705 61.405426,150.310379 61.167683,148.265167   C60.996815,146.795258 61.038731,145.267807 61.219894,143.794830   C63.202366,127.675957 70.820526,114.196144 80.932503,101.893890   C82.427879,100.074631 84.302292,99.110252 86.649513,99.693306   C89.201920,100.327347 89.696472,102.500847 90.010696,104.712730   C90.080811,105.206268 90.078537,105.709694 90.121376,106.207550   C91.124458,117.866104 96.226402,122.528931 108.018158,121.919518   C120.216934,121.289062 130.954880,124.717010 140.448212,132.338425   C144.629547,135.695267 148.234512,135.304596 151.805908,131.310501   C155.680817,126.976982 155.925735,120.944145 152.245468,115.645210   C149.475525,111.657005 145.796234,108.470985 142.395142,105.042625   C135.593033,98.186028 128.041061,91.870911 122.859474,83.709999   C118.864471,77.417931 113.499992,73.989609 106.786636,71.999481   C101.067192,70.304016 95.774780,68.253380 93.127098,62.186390   C91.940163,59.466602 90.453651,60.318466 89.157494,63.163666  z"/>
<path fill="#000000" opacity="1.000000" stroke="none" d=" M108.327538,91.340103   C110.450600,87.261398 113.465637,87.845940 116.532745,89.232292   C118.744560,90.232048 119.852058,92.054344 119.073364,94.483482   C118.368591,96.682014 116.499039,97.438866 114.350510,97.283562   C110.904465,97.034462 108.157036,95.882652 108.327538,91.340103  z"/>
</svg>